<svg width="43" height="47" viewBox="0 0 43 47" fill="none" xmlns="http://www.w3.org/2000/svg">
<path d="M17.459 22.7675C17.2347 22.7675 17.0528 22.9493 17.0528 23.1737C17.0528 23.398 17.2347 23.5799 17.459 23.5799V22.7675ZM17.459 23.5799H27.4366V22.7675H17.459V23.5799ZM28.4927 22.5238V13.094H27.6803V22.5238H28.4927ZM27.4366 23.5799C28.0198 23.5799 28.4927 23.107 28.4927 22.5238H27.6803C27.6803 22.6584 27.5712 22.7675 27.4366 22.7675V23.5799Z" fill="#0C68F4"/>
<path d="M14.0742 27.1357C13.8499 27.1357 13.668 27.3176 13.668 27.5419C13.668 27.7662 13.8499 27.9481 14.0742 27.9481V27.1357ZM14.0742 27.9481H37.9662V27.1357H14.0742V27.9481ZM39.0222 26.892V23.1594H38.2099V26.892H39.0222ZM37.9662 27.9481C38.5494 27.9481 39.0222 27.4753 39.0222 26.892H38.2099C38.2099 27.0266 38.1008 27.1357 37.9662 27.1357V27.9481Z" fill="#0C68F4"/>
<path d="M13.4502 31.3934C13.2259 31.3934 13.044 31.5752 13.044 31.7996C13.044 32.0239 13.2259 32.2058 13.4502 32.2058V31.3934ZM13.4502 32.2058H37.5538V31.3934H13.4502V32.2058Z" fill="#0C68F4"/>
<path d="M16.9238 35.669C16.6995 35.669 16.5176 35.8509 16.5176 36.0752C16.5176 36.2995 16.6995 36.4814 16.9238 36.4814V35.669ZM16.9238 36.4814H28.842V35.669H16.9238V36.4814ZM29.0857 36.7251V40.9034H29.8981V36.7251H29.0857ZM30.1418 41.9595H32.7007V41.1471H30.1418V41.9595ZM29.0857 40.9034C29.0857 41.4866 29.5585 41.9595 30.1418 41.9595V41.1471C30.0072 41.1471 29.8981 41.038 29.8981 40.9034H29.0857ZM28.842 36.4814C28.9766 36.4814 29.0857 36.5905 29.0857 36.7251H29.8981C29.8981 36.1418 29.4252 35.669 28.842 35.669V36.4814Z" fill="#0C68F4"/>
<mask id="path-5-inside-1_3011_47218" fill="white">
<path d="M30.4336 11.03C30.4336 12.3007 29.4035 13.3308 28.1328 13.3308C26.8621 13.3308 25.832 12.3007 25.832 11.03C25.832 9.75935 26.8621 8.72925 28.1328 8.72925C29.4035 8.72925 30.4336 9.75935 30.4336 11.03ZM26.7524 11.03C26.7524 11.7925 27.3704 12.4105 28.1328 12.4105C28.8952 12.4105 29.5133 11.7925 29.5133 11.03C29.5133 10.2676 28.8952 9.64957 28.1328 9.64957C27.3704 9.64957 26.7524 10.2676 26.7524 11.03Z"/>
</mask>
<path d="M30.4336 11.03C30.4336 12.3007 29.4035 13.3308 28.1328 13.3308C26.8621 13.3308 25.832 12.3007 25.832 11.03C25.832 9.75935 26.8621 8.72925 28.1328 8.72925C29.4035 8.72925 30.4336 9.75935 30.4336 11.03ZM26.7524 11.03C26.7524 11.7925 27.3704 12.4105 28.1328 12.4105C28.8952 12.4105 29.5133 11.7925 29.5133 11.03C29.5133 10.2676 28.8952 9.64957 28.1328 9.64957C27.3704 9.64957 26.7524 10.2676 26.7524 11.03Z" fill="#F45E0C" stroke="#F45E0C" stroke-width="0.356299" mask="url(#path-5-inside-1_3011_47218)"/>
<mask id="path-6-inside-2_3011_47218" fill="white">
<path d="M40.9444 20.9378C40.9444 22.2085 39.9143 23.2386 38.6436 23.2386C37.3729 23.2386 36.3428 22.2085 36.3428 20.9378C36.3428 19.6671 37.3729 18.637 38.6436 18.637C39.9143 18.637 40.9444 19.6671 40.9444 20.9378ZM37.2631 20.9378C37.2631 21.7002 37.8812 22.3182 38.6436 22.3182C39.406 22.3182 40.024 21.7002 40.024 20.9378C40.024 20.1753 39.406 19.5573 38.6436 19.5573C37.8812 19.5573 37.2631 20.1753 37.2631 20.9378Z"/>
</mask>
<path d="M40.9444 20.9378C40.9444 22.2085 39.9143 23.2386 38.6436 23.2386C37.3729 23.2386 36.3428 22.2085 36.3428 20.9378C36.3428 19.6671 37.3729 18.637 38.6436 18.637C39.9143 18.637 40.9444 19.6671 40.9444 20.9378ZM37.2631 20.9378C37.2631 21.7002 37.8812 22.3182 38.6436 22.3182C39.406 22.3182 40.024 21.7002 40.024 20.9378C40.024 20.1753 39.406 19.5573 38.6436 19.5573C37.8812 19.5573 37.2631 20.1753 37.2631 20.9378Z" fill="#F45E0C" stroke="#F45E0C" stroke-width="0.356299" mask="url(#path-6-inside-2_3011_47218)"/>
<mask id="path-7-inside-3_3011_47218" fill="white">
<path d="M42.0127 31.6953C42.0127 32.966 40.9826 33.9961 39.7119 33.9961C38.4412 33.9961 37.4111 32.966 37.4111 31.6953C37.4111 30.4246 38.4412 29.3945 39.7119 29.3945C40.9826 29.3945 42.0127 30.4246 42.0127 31.6953ZM38.3315 31.6953C38.3315 32.4577 38.9495 33.0758 39.7119 33.0758C40.4743 33.0758 41.0924 32.4577 41.0924 31.6953C41.0924 30.9329 40.4743 30.3149 39.7119 30.3149C38.9495 30.3149 38.3315 30.9329 38.3315 31.6953Z"/>
</mask>
<path d="M42.0127 31.6953C42.0127 32.966 40.9826 33.9961 39.7119 33.9961C38.4412 33.9961 37.4111 32.966 37.4111 31.6953C37.4111 30.4246 38.4412 29.3945 39.7119 29.3945C40.9826 29.3945 42.0127 30.4246 42.0127 31.6953ZM38.3315 31.6953C38.3315 32.4577 38.9495 33.0758 39.7119 33.0758C40.4743 33.0758 41.0924 32.4577 41.0924 31.6953C41.0924 30.9329 40.4743 30.3149 39.7119 30.3149C38.9495 30.3149 38.3315 30.9329 38.3315 31.6953Z" fill="#F45E0C" stroke="#F45E0C" stroke-width="0.356299" mask="url(#path-7-inside-3_3011_47218)"/>
<mask id="path-8-inside-4_3011_47218" fill="white">
<path d="M37.2032 41.4937C37.2032 42.7644 36.1731 43.7945 34.9024 43.7945C33.6317 43.7945 32.6016 42.7644 32.6016 41.4937C32.6016 40.223 33.6317 39.1929 34.9024 39.1929C36.1731 39.1929 37.2032 40.223 37.2032 41.4937ZM33.5219 41.4937C33.5219 42.2561 34.1399 42.8741 34.9024 42.8741C35.6648 42.8741 36.2828 42.2561 36.2828 41.4937C36.2828 40.7313 35.6648 40.1132 34.9024 40.1132C34.1399 40.1132 33.5219 40.7313 33.5219 41.4937Z"/>
</mask>
<path d="M37.2032 41.4937C37.2032 42.7644 36.1731 43.7945 34.9024 43.7945C33.6317 43.7945 32.6016 42.7644 32.6016 41.4937C32.6016 40.223 33.6317 39.1929 34.9024 39.1929C36.1731 39.1929 37.2032 40.223 37.2032 41.4937ZM33.5219 41.4937C33.5219 42.2561 34.1399 42.8741 34.9024 42.8741C35.6648 42.8741 36.2828 42.2561 36.2828 41.4937C36.2828 40.7313 35.6648 40.1132 34.9024 40.1132C34.1399 40.1132 33.5219 40.7313 33.5219 41.4937Z" fill="#F45E0C" stroke="#F45E0C" stroke-width="0.356299" mask="url(#path-8-inside-4_3011_47218)"/>
<path d="M23.6725 43.8248H3.2085C2.13171 43.8248 1.25879 42.9519 1.25879 41.8751V15.4847C1.25879 14.8267 1.59068 14.2131 2.14137 13.853L19.7249 2.3537C20.3335 1.95572 21.113 1.92946 21.7469 2.28557L33.8758 9.0987" stroke="#0C68F4" stroke-width="1.29981" stroke-linecap="round"/>
</svg>
